<?xml version="1.0" standalone="no"?>
<!DOCTYPE svg PUBLIC "-//W3C//DTD SVG 20010904//EN"
 "http://www.w3.org/TR/2001/REC-SVG-20010904/DTD/svg10.dtd">
<svg version="1.0" xmlns="http://www.w3.org/2000/svg"
 width="195.000000pt" height="351.000000pt" viewBox="0 0 195.000000 351.000000"
 preserveAspectRatio="xMidYMid meet">

<g transform="translate(0.000000,351.000000) scale(0.100000,-0.100000)"
fill="#000000" stroke="none">
<path d="M812 3387 c-62 -17 -119 -68 -132 -119 -13 -45 2 -167 22 -179 6 -4
4 -16 -8 -34 -17 -26 -17 -28 3 -44 11 -9 33 -43 48 -76 15 -33 36 -71 46 -84
10 -13 16 -28 13 -33 -10 -16 24 -44 58 -46 18 -2 35 -6 38 -11 3 -4 13 -10
23 -14 18 -7 33 -34 24 -44 -6 -5 -70 36 -75 49 -5 11 -49 10 -56 -1 -6 -10
107 -121 123 -121 6 0 11 5 11 11 0 6 6 9 13 6 6 -2 22 0 35 4 14 6 21 5 17 0
-3 -5 -1 -12 5 -16 6 -4 7 -11 4 -17 -9 -14 29 7 43 24 22 26 31 113 15 152
-13 32 -12 40 6 88 30 76 56 199 44 207 -5 3 -12 31 -16 61 -12 95 -34 147
-79 185 -59 51 -151 72 -225 52z m18 -60 c0 -22 32 -45 71 -52 39 -7 60 8 40
28 -19 19 -12 26 22 24 60 -4 130 -78 114 -121 -3 -7 -1 -18 4 -23 9 -9 -101
-18 -153 -13 -55 5 -147 3 -176 -4 l-33 -9 7 64 c5 49 12 70 32 92 27 28 72
37 72 14z m143 -246 c13 -22 14 -31 5 -37 -11 -7 -78 -13 -78 -7 0 14 36 73
45 73 6 0 18 -13 28 -29z m-203 -1 c6 -11 29 -29 51 -41 34 -17 40 -24 34 -42
-4 -12 -9 -32 -12 -44 -7 -30 -12 -29 -48 7 -16 17 -40 40 -52 52 -30 29 -32
88 -3 88 10 0 24 -9 30 -20z m360 -20 c0 -5 -7 -10 -16 -10 -8 0 -12 5 -9 10
3 6 10 10 16 10 5 0 9 -4 9 -10z m-54 -45 c10 -26 0 -37 -20 -22 -11 8 -16 19
-12 25 10 16 26 15 32 -3z m-216 -269 c0 -3 -4 -8 -10 -11 -5 -3 -10 -1 -10 4
0 6 5 11 10 11 6 0 10 -2 10 -4z"/>
<path d="M727 2755 c-15 -19 -40 -37 -55 -40 -15 -4 -49 -14 -77 -25 -27 -10
-97 -36 -155 -57 l-104 -39 -11 -69 c-6 -39 -24 -104 -38 -145 -23 -63 -29
-103 -39 -255 -6 -99 -11 -252 -12 -340 0 -137 3 -170 21 -230 28 -90 89 -328
98 -380 3 -22 15 -69 26 -104 10 -35 19 -75 19 -90 0 -51 9 -53 102 -27 46 14
104 32 129 40 l44 15 -29 -24 c-16 -12 -60 -36 -98 -51 -59 -24 -67 -30 -54
-40 15 -10 15 -12 1 -17 -25 -10 2 -59 28 -51 16 5 19 3 14 -11 -4 -9 -7 -18
-7 -21 0 -2 -7 -1 -15 2 -18 7 -19 -4 -4 -43 12 -31 31 -47 40 -32 10 17 37
-1 32 -21 -5 -19 4 -23 62 -32 14 -2 22 -15 28 -47 7 -37 5 -52 -14 -92 -18
-39 -21 -56 -14 -96 7 -49 11 -131 14 -325 l1 -108 139 0 139 0 5 133 c3 72 5
143 5 157 0 29 13 141 36 315 37 272 38 278 65 317 14 20 28 37 31 38 3 0 16
-39 29 -87 13 -49 34 -108 48 -132 21 -40 23 -55 21 -147 -3 -93 -1 -105 20
-133 21 -29 22 -38 22 -246 l0 -215 129 0 129 0 8 58 c4 31 8 118 9 192 1 74
7 229 14 345 7 129 9 290 5 418 l-7 208 31 32 c34 35 59 123 41 142 -12 12
-12 65 0 65 5 0 22 -5 36 -10 20 -8 25 -15 20 -30 -9 -28 13 -26 25 3 5 12 14
67 19 122 6 55 15 122 21 150 6 27 10 113 9 189 -1 116 -4 145 -20 173 -11 18
-19 39 -19 46 0 6 -12 37 -26 67 -14 30 -37 78 -50 106 -13 28 -24 60 -24 72
0 12 -11 38 -25 58 -14 20 -32 62 -41 93 -37 134 -38 135 -77 157 -22 12 -76
29 -120 39 -45 10 -105 25 -134 35 -59 19 -58 25 -9 -80 14 -30 26 -62 26 -70
0 -8 16 -31 35 -50 34 -33 35 -37 35 -110 0 -73 -10 -130 -32 -180 -22 -52
-27 -67 -43 -135 -27 -116 -23 -110 -50 -85 -13 12 -41 59 -63 104 -74 151
-162 338 -162 344 0 4 -35 78 -78 165 l-77 157 -28 -35z m751 -712 c25 -42 31
-65 35 -131 3 -44 2 -95 -2 -113 -4 -19 -4 -61 0 -94 6 -50 0 -99 -17 -133 0
-1 -15 3 -32 9 -39 13 -49 45 -60 174 -8 96 0 314 12 353 9 28 11 26 64 -65z
m-917 -359 c2 -82 -1 -128 -8 -135 -25 -25 -36 138 -19 256 8 53 10 57 17 32
4 -16 9 -85 10 -153z m62 -822 c-3 -12 -9 -19 -14 -16 -5 3 -4 14 2 25 13 26
20 21 12 -9z m-53 -47 c0 -8 -4 -15 -10 -15 -5 0 -7 7 -4 15 4 8 8 15 10 15 2
0 4 -7 4 -15z"/>
<path d="M1120 2668 c0 -9 5 -20 11 -23 17 -11 20 0 4 21 -13 17 -14 17 -15 2z"/>
</g>
</svg>
